<svg width="174" height="36" viewBox="0 0 174 36" fill="none" xmlns="http://www.w3.org/2000/svg">
<path d="M34.8252 12.824C35.0493 12.248 35.3693 11.816 35.7853 11.528C36.2333 11.24 36.7133 11.096 37.2253 11.096C37.9613 11.096 38.6173 11.352 39.1933 11.864C39.8013 12.344 40.1053 12.952 40.1053 13.688C40.1053 14.104 40.0253 14.472 39.8653 14.792L31.9452 33.368C31.6893 33.976 31.2893 34.44 30.7453 34.76C30.2332 35.08 29.6572 35.24 29.0173 35.24C28.4093 35.24 27.8333 35.08 27.2892 34.76C26.7773 34.44 26.3933 33.976 26.1372 33.368L20.4253 19.64L14.9053 33.368C14.6492 33.976 14.2492 34.44 13.7052 34.76C13.1932 35.08 12.6172 35.24 11.9772 35.24C11.3692 35.24 10.7932 35.08 10.2492 34.76C9.70525 34.44 9.30525 33.976 9.04925 33.368L1.17725 14.792C1.01725 14.376 0.937249 14.024 0.937249 13.736C0.937249 13 1.25725 12.376 1.89725 11.864C2.53725 11.32 3.24125 11.048 4.00925 11.048C4.55325 11.048 5.04925 11.192 5.49725 11.48C5.94525 11.768 6.28125 12.2 6.50525 12.776L12.1692 27.416L17.9773 12.92C18.2333 12.312 18.6013 11.864 19.0813 11.576C19.5613 11.256 20.0893 11.096 20.6653 11.096C21.2413 11.096 21.7693 11.256 22.2492 11.576C22.7293 11.864 23.0973 12.312 23.3533 12.92L29.2093 27.464L34.8252 12.824ZM63.1756 28.568C63.7196 28.568 64.1516 28.776 64.4716 29.192C64.8236 29.608 64.9996 30.168 64.9996 30.872C64.9996 31.864 64.4076 32.696 63.2236 33.368C62.1356 33.976 60.9036 34.472 59.5276 34.856C58.1516 35.208 56.8396 35.384 55.5916 35.384C51.8156 35.384 48.8236 34.296 46.6156 32.12C44.4076 29.944 43.3036 26.968 43.3036 23.192C43.3036 20.792 43.7836 18.664 44.7436 16.808C45.7036 14.952 47.0476 13.512 48.7756 12.488C50.5356 11.464 52.5196 10.952 54.7276 10.952C56.8396 10.952 58.6796 11.416 60.2476 12.344C61.8156 13.272 63.0316 14.584 63.8956 16.28C64.7596 17.976 65.1916 19.976 65.1916 22.28C65.1916 23.656 64.5836 24.344 63.3676 24.344H49.2076C49.3996 26.552 50.0236 28.184 51.0796 29.24C52.1356 30.264 53.6716 30.776 55.6876 30.776C56.7116 30.776 57.6076 30.648 58.3756 30.392C59.1756 30.136 60.0716 29.784 61.0636 29.336C62.0236 28.824 62.7276 28.568 63.1756 28.568ZM54.8716 15.176C53.2396 15.176 51.9276 15.688 50.9356 16.712C49.9756 17.736 49.3996 19.208 49.2076 21.128H60.0556C59.9916 19.176 59.5116 17.704 58.6156 16.712C57.7196 15.688 56.4716 15.176 54.8716 15.176ZM73.8436 35.288C72.9796 35.288 72.2596 35.048 71.6836 34.568C71.1396 34.056 70.8676 33.336 70.8676 32.408V3.752C70.8676 2.824 71.1396 2.12 71.6836 1.64C72.2596 1.16 72.9796 0.919998 73.8436 0.919998C74.7076 0.919998 75.4276 1.16 76.0036 1.64C76.5796 2.12 76.8676 2.824 76.8676 3.752V32.408C76.8676 33.336 76.5796 34.056 76.0036 34.568C75.4276 35.048 74.7076 35.288 73.8436 35.288ZM86.7991 35.288C85.9351 35.288 85.2151 35.048 84.6391 34.568C84.0951 34.056 83.8231 33.336 83.8231 32.408V3.752C83.8231 2.824 84.0951 2.12 84.6391 1.64C85.2151 1.16 85.9351 0.919998 86.7991 0.919998C87.6631 0.919998 88.3831 1.16 88.9591 1.64C89.5351 2.12 89.8231 2.824 89.8231 3.752V32.408C89.8231 33.336 89.5351 34.056 88.9591 34.568C88.3831 35.048 87.6631 35.288 86.7991 35.288Z" fill="#F2F2F2"/>
<path d="M110.267 10.952C112.315 10.952 114.123 11.448 115.691 12.44C117.259 13.432 118.475 14.84 119.339 16.664C120.235 18.488 120.683 20.616 120.683 23.048C120.683 25.48 120.235 27.64 119.339 29.528C118.475 31.384 117.243 32.824 115.643 33.848C114.075 34.872 112.283 35.384 110.267 35.384C108.571 35.384 107.051 35.016 105.707 34.28C104.395 33.544 103.387 32.52 102.683 31.208V32.408C102.683 33.272 102.411 33.96 101.867 34.472C101.323 34.984 100.603 35.24 99.7066 35.24C98.8106 35.24 98.0906 34.984 97.5466 34.472C97.0346 33.96 96.7786 33.272 96.7786 32.408V3.704C96.7786 2.872 97.0506 2.2 97.5946 1.688C98.1706 1.176 98.9066 0.919998 99.8026 0.919998C100.699 0.919998 101.419 1.16 101.963 1.64C102.507 2.12 102.779 2.776 102.779 3.608V14.936C103.483 13.656 104.491 12.68 105.803 12.008C107.115 11.304 108.603 10.952 110.267 10.952ZM108.683 30.728C110.571 30.728 112.043 30.056 113.099 28.712C114.155 27.368 114.683 25.48 114.683 23.048C114.683 20.648 114.155 18.808 113.099 17.528C112.075 16.248 110.603 15.608 108.683 15.608C106.763 15.608 105.275 16.264 104.219 17.576C103.195 18.856 102.683 20.712 102.683 23.144C102.683 25.576 103.195 27.448 104.219 28.76C105.275 30.072 106.763 30.728 108.683 30.728ZM144.951 28.568C145.495 28.568 145.927 28.776 146.247 29.192C146.599 29.608 146.775 30.168 146.775 30.872C146.775 31.864 146.183 32.696 144.999 33.368C143.911 33.976 142.679 34.472 141.303 34.856C139.927 35.208 138.615 35.384 137.367 35.384C133.591 35.384 130.599 34.296 128.391 32.12C126.183 29.944 125.079 26.968 125.079 23.192C125.079 20.792 125.559 18.664 126.519 16.808C127.479 14.952 128.823 13.512 130.551 12.488C132.311 11.464 134.295 10.952 136.503 10.952C138.615 10.952 140.455 11.416 142.023 12.344C143.591 13.272 144.807 14.584 145.671 16.28C146.535 17.976 146.967 19.976 146.967 22.28C146.967 23.656 146.359 24.344 145.143 24.344H130.983C131.175 26.552 131.799 28.184 132.855 29.24C133.911 30.264 135.447 30.776 137.463 30.776C138.487 30.776 139.383 30.648 140.151 30.392C140.951 30.136 141.847 29.784 142.839 29.336C143.799 28.824 144.503 28.568 144.951 28.568ZM136.647 15.176C135.015 15.176 133.703 15.688 132.711 16.712C131.751 17.736 131.175 19.208 130.983 21.128H141.831C141.767 19.176 141.287 17.704 140.391 16.712C139.495 15.688 138.247 15.176 136.647 15.176ZM171.219 28.568C171.763 28.568 172.195 28.776 172.515 29.192C172.867 29.608 173.043 30.168 173.043 30.872C173.043 31.864 172.451 32.696 171.267 33.368C170.179 33.976 168.947 34.472 167.571 34.856C166.195 35.208 164.883 35.384 163.635 35.384C159.859 35.384 156.867 34.296 154.659 32.12C152.451 29.944 151.347 26.968 151.347 23.192C151.347 20.792 151.827 18.664 152.787 16.808C153.747 14.952 155.091 13.512 156.819 12.488C158.579 11.464 160.563 10.952 162.771 10.952C164.883 10.952 166.723 11.416 168.291 12.344C169.859 13.272 171.075 14.584 171.939 16.28C172.803 17.976 173.235 19.976 173.235 22.28C173.235 23.656 172.627 24.344 171.411 24.344H157.251C157.443 26.552 158.067 28.184 159.123 29.24C160.179 30.264 161.715 30.776 163.731 30.776C164.755 30.776 165.651 30.648 166.419 30.392C167.219 30.136 168.115 29.784 169.107 29.336C170.067 28.824 170.771 28.568 171.219 28.568ZM162.915 15.176C161.283 15.176 159.971 15.688 158.979 16.712C158.019 17.736 157.443 19.208 157.251 21.128H168.099C168.035 19.176 167.555 17.704 166.659 16.712C165.763 15.688 164.515 15.176 162.915 15.176Z" fill="#EBBC56"/>
</svg>
