<svg width="260" height="53" viewBox="0 0 260 53" fill="none" xmlns="http://www.w3.org/2000/svg">
<path d="M51.4879 18.736C51.8239 17.872 52.3039 17.224 52.9279 16.792C53.5999 16.36 54.3199 16.144 55.0879 16.144C56.1919 16.144 57.1759 16.528 58.0399 17.296C58.9519 18.016 59.4079 18.928 59.4079 20.032C59.4079 20.656 59.2879 21.208 59.0479 21.688L47.1679 49.552C46.7839 50.464 46.1839 51.16 45.3679 51.64C44.5999 52.12 43.7359 52.36 42.7759 52.36C41.8639 52.36 40.9999 52.12 40.1839 51.64C39.4159 51.16 38.8399 50.464 38.4559 49.552L29.8879 28.96L21.6079 49.552C21.2239 50.464 20.6239 51.16 19.8079 51.64C19.0399 52.12 18.1759 52.36 17.2159 52.36C16.3039 52.36 15.4399 52.12 14.6239 51.64C13.8079 51.16 13.2079 50.464 12.8239 49.552L1.01588 21.688C0.775881 21.064 0.655881 20.536 0.655881 20.104C0.655881 19 1.13588 18.064 2.09588 17.296C3.05588 16.48 4.11188 16.072 5.26388 16.072C6.07988 16.072 6.82388 16.288 7.49588 16.72C8.16788 17.152 8.67188 17.8 9.00788 18.664L17.5039 40.624L26.2159 18.88C26.5999 17.968 27.1519 17.296 27.8719 16.864C28.5919 16.384 29.3839 16.144 30.2479 16.144C31.1119 16.144 31.9039 16.384 32.6239 16.864C33.3439 17.296 33.8959 17.968 34.2799 18.88L43.0639 40.696L51.4879 18.736ZM94.0134 42.352C94.8294 42.352 95.4774 42.664 95.9574 43.288C96.4854 43.912 96.7494 44.752 96.7494 45.808C96.7494 47.296 95.8614 48.544 94.0854 49.552C92.4534 50.464 90.6054 51.208 88.5414 51.784C86.4774 52.312 84.5094 52.576 82.6374 52.576C76.9734 52.576 72.4854 50.944 69.1734 47.68C65.8614 44.416 64.2054 39.952 64.2054 34.288C64.2054 30.688 64.9254 27.496 66.3654 24.712C67.8054 21.928 69.8214 19.768 72.4134 18.232C75.0534 16.696 78.0294 15.928 81.3414 15.928C84.5094 15.928 87.2694 16.624 89.6214 18.016C91.9734 19.408 93.7974 21.376 95.0934 23.92C96.3894 26.464 97.0374 29.464 97.0374 32.92C97.0374 34.984 96.1254 36.016 94.3014 36.016H73.0614C73.3494 39.328 74.2854 41.776 75.8694 43.36C77.4534 44.896 79.7574 45.664 82.7814 45.664C84.3174 45.664 85.6614 45.472 86.8134 45.088C88.0134 44.704 89.3574 44.176 90.8454 43.504C92.2854 42.736 93.3414 42.352 94.0134 42.352ZM81.5574 22.264C79.1094 22.264 77.1414 23.032 75.6534 24.568C74.2134 26.104 73.3494 28.312 73.0614 31.192H89.3334C89.2374 28.264 88.5174 26.056 87.1734 24.568C85.8294 23.032 83.9574 22.264 81.5574 22.264ZM110.015 52.432C108.719 52.432 107.639 52.072 106.775 51.352C105.959 50.584 105.551 49.504 105.551 48.112V5.128C105.551 3.736 105.959 2.68 106.775 1.96C107.639 1.24 108.719 0.879997 110.015 0.879997C111.311 0.879997 112.391 1.24 113.255 1.96C114.119 2.68 114.551 3.736 114.551 5.128V48.112C114.551 49.504 114.119 50.584 113.255 51.352C112.391 52.072 111.311 52.432 110.015 52.432ZM129.449 52.432C128.153 52.432 127.073 52.072 126.209 51.352C125.393 50.584 124.985 49.504 124.985 48.112V5.128C124.985 3.736 125.393 2.68 126.209 1.96C127.073 1.24 128.153 0.879997 129.449 0.879997C130.745 0.879997 131.825 1.24 132.689 1.96C133.553 2.68 133.985 3.736 133.985 5.128V48.112C133.985 49.504 133.553 50.584 132.689 51.352C131.825 52.072 130.745 52.432 129.449 52.432Z" fill="#493843"/>
<path d="M164.65 15.928C167.722 15.928 170.434 16.672 172.786 18.16C175.138 19.648 176.962 21.76 178.258 24.496C179.602 27.232 180.274 30.424 180.274 34.072C180.274 37.72 179.602 40.96 178.258 43.792C176.962 46.576 175.114 48.736 172.714 50.272C170.362 51.808 167.674 52.576 164.65 52.576C162.106 52.576 159.826 52.024 157.81 50.92C155.842 49.816 154.33 48.28 153.274 46.312V48.112C153.274 49.408 152.866 50.44 152.05 51.208C151.234 51.976 150.154 52.36 148.81 52.36C147.466 52.36 146.386 51.976 145.57 51.208C144.802 50.44 144.418 49.408 144.418 48.112V5.056C144.418 3.808 144.826 2.8 145.642 2.032C146.506 1.264 147.61 0.879997 148.954 0.879997C150.298 0.879997 151.378 1.24 152.194 1.96C153.01 2.68 153.418 3.664 153.418 4.912V21.904C154.474 19.984 155.986 18.52 157.954 17.512C159.922 16.456 162.154 15.928 164.65 15.928ZM162.274 45.592C165.106 45.592 167.314 44.584 168.898 42.568C170.482 40.552 171.274 37.72 171.274 34.072C171.274 30.472 170.482 27.712 168.898 25.792C167.362 23.872 165.154 22.912 162.274 22.912C159.394 22.912 157.162 23.896 155.578 25.864C154.042 27.784 153.274 30.568 153.274 34.216C153.274 37.864 154.042 40.672 155.578 42.64C157.162 44.608 159.394 45.592 162.274 45.592ZM216.676 42.352C217.492 42.352 218.14 42.664 218.62 43.288C219.148 43.912 219.412 44.752 219.412 45.808C219.412 47.296 218.524 48.544 216.748 49.552C215.116 50.464 213.268 51.208 211.204 51.784C209.14 52.312 207.172 52.576 205.3 52.576C199.636 52.576 195.148 50.944 191.836 47.68C188.524 44.416 186.868 39.952 186.868 34.288C186.868 30.688 187.588 27.496 189.028 24.712C190.468 21.928 192.484 19.768 195.076 18.232C197.716 16.696 200.692 15.928 204.004 15.928C207.172 15.928 209.932 16.624 212.284 18.016C214.636 19.408 216.46 21.376 217.756 23.92C219.052 26.464 219.7 29.464 219.7 32.92C219.7 34.984 218.788 36.016 216.964 36.016H195.724C196.012 39.328 196.948 41.776 198.532 43.36C200.116 44.896 202.42 45.664 205.444 45.664C206.98 45.664 208.324 45.472 209.476 45.088C210.676 44.704 212.02 44.176 213.508 43.504C214.948 42.736 216.004 42.352 216.676 42.352ZM204.22 22.264C201.772 22.264 199.804 23.032 198.316 24.568C196.876 26.104 196.012 28.312 195.724 31.192H211.996C211.9 28.264 211.18 26.056 209.836 24.568C208.492 23.032 206.62 22.264 204.22 22.264ZM256.078 42.352C256.894 42.352 257.542 42.664 258.022 43.288C258.55 43.912 258.814 44.752 258.814 45.808C258.814 47.296 257.926 48.544 256.15 49.552C254.518 50.464 252.67 51.208 250.606 51.784C248.542 52.312 246.574 52.576 244.702 52.576C239.038 52.576 234.55 50.944 231.238 47.68C227.926 44.416 226.27 39.952 226.27 34.288C226.27 30.688 226.99 27.496 228.43 24.712C229.87 21.928 231.886 19.768 234.478 18.232C237.118 16.696 240.094 15.928 243.406 15.928C246.574 15.928 249.334 16.624 251.686 18.016C254.038 19.408 255.862 21.376 257.158 23.92C258.454 26.464 259.102 29.464 259.102 32.92C259.102 34.984 258.19 36.016 256.366 36.016H235.126C235.414 39.328 236.35 41.776 237.934 43.36C239.518 44.896 241.822 45.664 244.846 45.664C246.382 45.664 247.726 45.472 248.878 45.088C250.078 44.704 251.422 44.176 252.91 43.504C254.35 42.736 255.406 42.352 256.078 42.352ZM243.622 22.264C241.174 22.264 239.206 23.032 237.718 24.568C236.278 26.104 235.414 28.312 235.126 31.192H251.398C251.302 28.264 250.582 26.056 249.238 24.568C247.894 23.032 246.022 22.264 243.622 22.264Z" fill="#EBBC56"/>
</svg>
